<svg width="14" height="14" viewBox="0 0 14 14" fill="none" xmlns="http://www.w3.org/2000/svg">
<path opacity="0.4" fill-rule="evenodd" clip-rule="evenodd" d="M6.36358 9.96951C6.07069 9.67661 5.59581 9.67661 5.30292 9.96951L4.24992 11.0225L4.24992 4.6665C4.24992 4.25229 3.91413 3.9165 3.49992 3.9165C3.0857 3.9165 2.74992 4.25229 2.74992 4.6665L2.74992 11.0225L1.69691 9.96951C1.40402 9.67661 0.929148 9.67661 0.636255 9.96951C0.343362 10.2624 0.343362 10.7373 0.636254 11.0302L2.96959 13.3635C3.26248 13.6564 3.73735 13.6564 4.03025 13.3635L6.36358 11.0302C6.65647 10.7373 6.65647 10.2624 6.36358 9.96951Z" fill="white"/>
<path fill-rule="evenodd" clip-rule="evenodd" d="M13.3636 4.03017C13.0707 4.32306 12.5958 4.32306 12.3029 4.03017L11.2499 2.97716L11.2499 9.33317C11.2499 9.74738 10.9141 10.0832 10.4999 10.0832C10.0857 10.0832 9.74992 9.74738 9.74992 9.33317L9.74992 2.97716L8.69692 4.03017C8.40402 4.32306 7.92915 4.32306 7.63626 4.03017C7.34336 3.73727 7.34336 3.2624 7.63626 2.96951L9.96959 0.636174C10.1102 0.495521 10.301 0.416504 10.4999 0.416504C10.6988 0.416504 10.8896 0.495521 11.0302 0.636174L13.3636 2.96951C13.6565 3.2624 13.6565 3.73727 13.3636 4.03017Z" fill="white"/>
</svg>
