<svg width="20" height="20" viewBox="0 0 20 20" fill="none" xmlns="http://www.w3.org/2000/svg">
<path fill-rule="evenodd" clip-rule="evenodd" d="M0.435974 2.18404C0 3.03969 0 4.15979 0 6.4V7.6C0 9.84021 0 10.9603 0.435974 11.816C0.819467 12.5686 1.43139 13.1805 2.18404 13.564C3.03969 14 4.15979 14 6.4 14H7.6C9.84021 14 10.9603 14 11.816 13.564C12.5686 13.1805 13.1805 12.5686 13.564 11.816C14 10.9603 14 9.84021 14 7.6V6.4C14 4.15979 14 3.03969 13.564 2.18404C13.1805 1.43139 12.5686 0.819467 11.816 0.435974C10.9603 0 9.84021 0 7.6 0H6.4C4.15979 0 3.03969 0 2.18404 0.435974C1.43139 0.819467 0.819467 1.43139 0.435974 2.18404ZM20 10.4446V13.6C20 15.8402 20 16.9603 19.564 17.816C19.1805 18.5686 18.5686 19.1805 17.816 19.564C16.9603 20 15.8402 20 13.6 20H10.3051C10.0218 20 9.88016 20 9.76054 19.9928C7.73993 19.8716 6.12836 18.2601 6.00717 16.2395C6 16.1198 6 15.9782 6 15.6949C6 15.6601 6 15.6427 6.00088 15.6279C6.01565 15.3786 6.21216 15.1784 6.46118 15.159C6.47594 15.1579 6.49335 15.1575 6.52817 15.1569L7.148 15.1454H7.14801C9.90131 15.0944 11.278 15.0689 12.3274 14.517C13.2507 14.0313 13.999 13.2691 14.4675 12.3369C14.9999 11.2775 14.9999 9.90056 14.9999 7.14678V6.55557C14.9999 6.50397 14.9999 6.47816 15.0018 6.45641C15.0229 6.2147 15.2146 6.02306 15.4563 6.0019C15.478 6 15.5038 6 15.5554 6C15.9683 6 16.1747 6 16.3487 6.01523C18.2824 6.18445 19.8156 7.71757 19.9848 9.65129C20 9.82531 20 10.0317 20 10.4446Z" fill="white"/>
</svg>
