<svg width="22" height="22" viewBox="0 0 22 22" fill="none" xmlns="http://www.w3.org/2000/svg">
<path fill-rule="evenodd" clip-rule="evenodd" d="M1.75005 6.5C1.75005 3.87665 3.8767 1.75 6.50005 1.75H7.00005C7.41427 1.75 7.75005 1.41421 7.75005 1C7.75005 0.585786 7.41427 0.25 7.00005 0.25H6.50005C3.04827 0.25 0.250053 3.04822 0.250053 6.5V7C0.250053 7.41421 0.58584 7.75 1.00005 7.75C1.41427 7.75 1.75005 7.41421 1.75005 7V6.5ZM15.0001 0.25C14.5858 0.25 14.2501 0.585786 14.2501 1C14.2501 1.41421 14.5858 1.75 15.0001 1.75H15.5001C18.1234 1.75 20.2501 3.87665 20.2501 6.5V7C20.2501 7.41421 20.5858 7.75 21.0001 7.75C21.4143 7.75 21.7501 7.41421 21.7501 7V6.5C21.7501 3.04822 18.9518 0.25 15.5001 0.25H15.0001ZM1.75005 15C1.75005 14.5858 1.41427 14.25 1.00005 14.25C0.58584 14.25 0.250053 14.5858 0.250053 15V15.5C0.250053 18.9518 3.04827 21.75 6.50005 21.75H7.00005C7.41427 21.75 7.75005 21.4142 7.75005 21C7.75005 20.5858 7.41427 20.25 7.00005 20.25H6.50005C3.8767 20.25 1.75005 18.1234 1.75005 15.5V15ZM21.7501 15C21.7501 14.5858 21.4143 14.25 21.0001 14.25C20.5858 14.25 20.2501 14.5858 20.2501 15V15.5C20.2501 18.1234 18.1234 20.25 15.5001 20.25H15.0001C14.5858 20.25 14.2501 20.5858 14.2501 21C14.2501 21.4142 14.5858 21.75 15.0001 21.75H15.5001C18.9518 21.75 21.7501 18.9518 21.7501 15.5V15ZM1 10.25C0.585786 10.25 0.25 10.5858 0.25 11C0.25 11.4142 0.585786 11.75 1 11.75H21C21.4142 11.75 21.75 11.4142 21.75 11C21.75 10.5858 21.4142 10.25 21 10.25H1Z" fill="white"/>
</svg>
