<svg width="20" height="20" viewBox="0 0 20 20" fill="none" xmlns="http://www.w3.org/2000/svg">
<path fill-rule="evenodd" clip-rule="evenodd" d="M10.0001 0.916748C4.9835 0.916748 0.916748 4.9835 0.916748 10.0001C0.916748 15.0167 4.9835 19.0834 10.0001 19.0834C15.0167 19.0834 19.0834 15.0167 19.0834 10.0001C19.0834 4.9835 15.0167 0.916748 10.0001 0.916748ZM10.0001 14.1667C10.4603 14.1667 10.8334 13.7937 10.8334 13.3334C10.8334 12.8732 10.4603 12.5001 10.0001 12.5001C9.53984 12.5001 9.16675 12.8732 9.16675 13.3334C9.16675 13.7937 9.53984 14.1667 10.0001 14.1667ZM10.0001 7.41675C9.49382 7.41675 9.08341 7.82715 9.08341 8.33342V8.75008C9.08341 9.16429 8.74763 9.50008 8.33341 9.50008C7.9192 9.50008 7.58341 9.16429 7.58341 8.75008V8.33342C7.58341 6.99873 8.66539 5.91675 10.0001 5.91675C11.3348 5.91675 12.4167 6.99873 12.4167 8.33342V8.43451C12.4167 9.10227 12.1515 9.74267 11.6793 10.2148L10.5304 11.3637C10.2375 11.6566 9.76264 11.6566 9.46975 11.3637C9.17686 11.0709 9.17686 10.596 9.46975 10.3031L10.6187 9.15418C10.8095 8.96332 10.9167 8.70444 10.9167 8.43451V8.33342C10.9167 7.82715 10.5063 7.41675 10.0001 7.41675Z" fill="white"/>
</svg>
