<svg width="18" height="18" viewBox="0 0 18 18" fill="none" xmlns="http://www.w3.org/2000/svg">
<path fill-rule="evenodd" clip-rule="evenodd" d="M9 1.5L9.32305 0.82314C9.09067 0.712234 8.81765 0.728285 8.59987 0.865657C8.38209 1.00303 8.25 1.24251 8.25 1.5C8.25 2.10696 8.27989 2.7758 8.30944 3.43683L8.30945 3.43699C8.31742 3.61526 8.32536 3.79296 8.33268 3.96872C8.36781 4.81186 8.38941 5.621 8.34521 6.32822C8.29994 7.05254 8.18952 7.57761 8.01955 7.90138C7.94018 8.05255 7.86196 8.13205 7.7966 8.1753C7.73673 8.21491 7.64944 8.25 7.5 8.25C7.25634 8.25 7.11521 8.19174 7.01961 8.12118C6.91691 8.04538 6.80173 7.90676 6.69636 7.64333C6.47355 7.08631 6.375 6.18441 6.375 4.875C6.375 4.58313 6.20567 4.31776 5.94096 4.1948C5.67625 4.07184 5.36424 4.11362 5.14121 4.3019L5.625 4.875C5.14121 4.3019 5.14099 4.30208 5.14076 4.30228L5.14024 4.30272L5.13903 4.30375L5.13589 4.30642L5.12678 4.31426L5.0977 4.33976C5.07365 4.3611 5.04045 4.39112 4.99942 4.42956C4.91741 4.5064 4.80378 4.6172 4.66915 4.75999C4.40044 5.04499 4.04484 5.46081 3.6893 5.99182C2.9811 7.04952 2.25 8.5999 2.25 10.5C2.25 14.3261 5.21359 17.25 9 17.25C12.7864 17.25 15.75 14.3261 15.75 10.5C15.75 7.16576 14.1151 4.73529 12.5273 3.16551C11.7326 2.37984 10.9398 1.79896 10.3452 1.41384C10.0473 1.22087 9.79738 1.0759 9.61942 0.977961C9.53038 0.928963 9.4592 0.891648 9.40885 0.865902C9.38367 0.853026 9.36369 0.843035 9.34927 0.835915L9.33185 0.827383L9.32635 0.824726L9.32443 0.8238L9.32367 0.823437C9.32335 0.823283 9.32305 0.82314 9 1.5Z" fill="white"/>
</svg>
